<svg id="Layer_1" data-name="Layer 1" xmlns="http://www.w3.org/2000/svg" viewBox="0 0 1000 1000"><defs><style>.cls-1{fill:#fff;}.cls-2{fill:#1872e2;}.cls-3{fill:#fca021;}</style></defs><title>LogoLife Pith 1</title><path class="cls-1" d="M312,633.92V594h9.22v31.82h19.34v8.1Z"/><path class="cls-1" d="M344.19,601v-8.16h9V601Zm0,32.89V604.4h9v29.52Z"/><path class="cls-1" d="M361.28,633.92v-20.3h-3.77v-6.8h3.77V604.4a16,16,0,0,1,.73-5,11.11,11.11,0,0,1,2.08-3.83,9.09,9.09,0,0,1,3.26-2.42,10.36,10.36,0,0,1,4.22-.84,19.84,19.84,0,0,1,7.7,1.74l-1.63,6.75a11.73,11.73,0,0,0-2-.65,9.62,9.62,0,0,0-2.05-.25q-3.31,0-3.32,4.16v2.76h6.86v6.8h-6.86v20.3Z"/><path class="cls-1" d="M393.66,634.48a17.37,17.37,0,0,1-6.66-1.21,14.71,14.71,0,0,1-5-3.29,14.06,14.06,0,0,1-3.12-4.81,15.31,15.31,0,0,1-1.07-5.7,16.9,16.9,0,0,1,1.07-6.05,14.32,14.32,0,0,1,8.06-8.35,17.35,17.35,0,0,1,6.72-1.23,17.13,17.13,0,0,1,6.69,1.23,14.73,14.73,0,0,1,4.95,3.35,14.11,14.11,0,0,1,3.06,4.86,16.14,16.14,0,0,1,1,5.79c0,.53,0,1,0,1.55a12.33,12.33,0,0,1-.17,1.32H387.37a6,6,0,0,0,2.16,4.53,6.87,6.87,0,0,0,4.41,1.54,8.2,8.2,0,0,0,3.8-1,4.86,4.86,0,0,0,2.44-2.59l7.65,2.14a13.8,13.8,0,0,1-5.4,5.68A16.74,16.74,0,0,1,393.66,634.48Zm6.24-18.11a6.79,6.79,0,0,0-2-4.44,6.13,6.13,0,0,0-4.33-1.63,6,6,0,0,0-4.36,1.66,6.87,6.87,0,0,0-2,4.41Z"/><path class="cls-1" d="M427.34,633.92V594h17a11.64,11.64,0,0,1,5.26,1.18,13.55,13.55,0,0,1,4.1,3.09,14.61,14.61,0,0,1,2.7,4.33,12.79,12.79,0,0,1,1,4.89,14,14,0,0,1-.93,5.06,14.37,14.37,0,0,1-2.59,4.33,12,12,0,0,1-9.25,4.16h-8.09v12.88ZM436.56,613h7.53a3.56,3.56,0,0,0,2.81-1.4,6.24,6.24,0,0,0,1.18-4.11,7.3,7.3,0,0,0-.36-2.42,5,5,0,0,0-1-1.68,3.82,3.82,0,0,0-1.4-1,4.44,4.44,0,0,0-1.58-.31h-7.19Z"/><path class="cls-1" d="M461.63,601v-8.16h9V601Zm0,32.89V604.4h9v29.52Z"/><path class="cls-1" d="M495.93,632.34a34.89,34.89,0,0,1-4.25,1.46,17.56,17.56,0,0,1-4.8.68,11.64,11.64,0,0,1-3.18-.42,7.1,7.1,0,0,1-2.62-1.35,6.33,6.33,0,0,1-1.77-2.45,9.31,9.31,0,0,1-.64-3.65V611.2H474.9v-6.8h3.77V595h9v9.39h6v6.8h-6v12.31a2.41,2.41,0,0,0,2.59,2.76,6.75,6.75,0,0,0,2.08-.34,12.3,12.3,0,0,0,1.85-.73Z"/><path class="cls-1" d="M527.86,633.92h-9V617.33a6.53,6.53,0,0,0-1.13-4.22,3.81,3.81,0,0,0-3.09-1.35,4.81,4.81,0,0,0-1.72.37,7.06,7.06,0,0,0-1.8,1.07,9.72,9.72,0,0,0-1.6,1.66,7.11,7.11,0,0,0-1.12,2.13v16.93h-9v-41h9v16.48a11.3,11.3,0,0,1,4.3-4.08,12.17,12.17,0,0,1,5.87-1.43,9.61,9.61,0,0,1,4.81,1,7.55,7.55,0,0,1,2.81,2.64,9.84,9.84,0,0,1,1.32,3.6,22.88,22.88,0,0,1,.34,3.91Z"/><path class="cls-1" d="M556.87,611.09v22.83h-9.22V594h7.2l18.61,23.44V594h9.22v39.92h-7.42Z"/><path class="cls-1" d="M589.59,601v-8.16h9V601Zm0,32.89V604.4h9v29.52Z"/><path class="cls-1" d="M616.24,634a12.09,12.09,0,0,1-5.34-1.18,12.62,12.62,0,0,1-4.13-3.21,14.66,14.66,0,0,1-2.67-4.72,17.16,17.16,0,0,1-1-5.79,17.64,17.64,0,0,1,1-6,15.13,15.13,0,0,1,2.81-4.84,12.94,12.94,0,0,1,9.9-4.41,11.59,11.59,0,0,1,5.88,1.43,11.11,11.11,0,0,1,4,4V604.4h7.82v27.49A14,14,0,0,1,633.3,638a13.22,13.22,0,0,1-3.51,4.59,15.87,15.87,0,0,1-5.4,2.89,22.32,22.32,0,0,1-6.91,1,19.8,19.8,0,0,1-8.15-1.51,17.43,17.43,0,0,1-5.91-4.39l4.84-4.89a11.59,11.59,0,0,0,4,3,12.37,12.37,0,0,0,5.17,1.1,10.45,10.45,0,0,0,3.09-.45,7.51,7.51,0,0,0,2.59-1.38,6.37,6.37,0,0,0,1.77-2.42,8.93,8.93,0,0,0,.64-3.57V629a8.8,8.8,0,0,1-3.87,3.74A12,12,0,0,1,616.24,634Zm3.09-7.14a6.3,6.3,0,0,0,3.71-1.15,7.88,7.88,0,0,0,2.53-3V616.6a8.14,8.14,0,0,0-2.75-3.74,6.5,6.5,0,0,0-3.94-1.38,5.61,5.61,0,0,0-2.67.65,6.67,6.67,0,0,0-2.08,1.74,8.29,8.29,0,0,0-1.35,2.53,9.24,9.24,0,0,0-.47,3,8.17,8.17,0,0,0,.53,3,7.22,7.22,0,0,0,1.49,2.39,6.93,6.93,0,0,0,2.22,1.58A6.83,6.83,0,0,0,619.33,626.89Z"/><path class="cls-1" d="M654.87,634.48a17.39,17.39,0,0,1-6.67-1.21,14.91,14.91,0,0,1-5-3.29,14.06,14.06,0,0,1-3.12-4.81,15.51,15.51,0,0,1-1.07-5.7,17.12,17.12,0,0,1,1.07-6.05,14.3,14.3,0,0,1,8.07-8.35,18.89,18.89,0,0,1,13.41,0,14.79,14.79,0,0,1,4.94,3.35,14.28,14.28,0,0,1,3.07,4.86,16.36,16.36,0,0,1,1,5.79c0,.53,0,1-.06,1.55a10.21,10.21,0,0,1-.17,1.32H648.57a6.08,6.08,0,0,0,2.16,4.53,6.92,6.92,0,0,0,4.42,1.54,8.16,8.16,0,0,0,3.79-1,4.92,4.92,0,0,0,2.45-2.59l7.64,2.14a13.84,13.84,0,0,1-5.39,5.68A16.76,16.76,0,0,1,654.87,634.48Zm6.24-18.11a6.8,6.8,0,0,0-2-4.44,6.11,6.11,0,0,0-4.33-1.63A6,6,0,0,0,650.4,612a6.88,6.88,0,0,0-2,4.41Z"/><path class="cls-1" d="M693.43,612.1a17.4,17.4,0,0,0-5.9,1.07,7.15,7.15,0,0,0-3.82,3v17.71h-9V604.4H683v6a12.56,12.56,0,0,1,3.9-4.67A9.08,9.08,0,0,1,692,604h.9a2.6,2.6,0,0,1,.56.06Z"/><path class="cls-1" d="M697.2,601v-8.16h9V601Zm0,32.89V604.4h9v29.52Z"/><path class="cls-1" d="M720.76,634.48a11.77,11.77,0,0,1-4.08-.7,9.37,9.37,0,0,1-5.37-4.95,8.92,8.92,0,0,1-.79-3.74,8.56,8.56,0,0,1,.93-4,9.23,9.23,0,0,1,2.62-3.1,12.91,12.91,0,0,1,4-2,16.73,16.73,0,0,1,5.11-.73,20.18,20.18,0,0,1,3.6.31,12.09,12.09,0,0,1,3,.93v-1.35q0-5.11-5.9-5.12a13,13,0,0,0-4.62.82,22.54,22.54,0,0,0-4.61,2.44L712,607.66a23.83,23.83,0,0,1,6.07-2.87,23.17,23.17,0,0,1,6.69-.95q6.69,0,10.35,3.15t3.65,9.22v7.59a3.06,3.06,0,0,0,.43,1.88,2.08,2.08,0,0,0,1.49.65v7.59a15.16,15.16,0,0,1-2.14.36q-1,.09-1.74.09a6.25,6.25,0,0,1-3.83-1,4.36,4.36,0,0,1-1.63-2.78l-.17-1.35a13.4,13.4,0,0,1-4.69,3.88A12.83,12.83,0,0,1,720.76,634.48ZM723.4,628a8.37,8.37,0,0,0,2.84-.5,6.69,6.69,0,0,0,2.28-1.35,2.81,2.81,0,0,0,1.29-2.14v-2.81a14.72,14.72,0,0,0-2.56-.7,14.15,14.15,0,0,0-2.56-.26,6.89,6.89,0,0,0-4.07,1.13A3.43,3.43,0,0,0,719,624.3a3.34,3.34,0,0,0,1.24,2.67A4.68,4.68,0,0,0,723.4,628Z"/><path class="cls-2" d="M654,461.67A137.14,137.14,0,1,1,454.18,296.4c1.53-.92,3.06-1.84,4.62-2.69a10,10,0,0,1,2.8-.4,10.44,10.44,0,0,1,8.21,16.87c-1.38,1.05-2.76,2.12-4.15,3.17-2,1.56-4,3.12-5.94,4.72-24.46,20.06-40.28,45.57-45.12,76.78-7.15,46.37,7.26,85.32,44,115.1a104.64,104.64,0,0,0,57.52,23.17c37.3,3.29,68.87-8.8,93.58-37.24A94.47,94.47,0,0,0,632.74,443c3.7-35.24-7.53-65-35.67-86.85-26.23-20.39-55.9-24.84-86.86-12.05-26.73,11-43.16,31.48-47.94,60.16-5.15,31,10.09,61.24,37.86,74.62,23.58,11.34,51.76,7.24,69.88-11.34,15.78-16.17,19.59-40.68,9.1-59.77-8.94-16.3-26.9-25.13-44.21-21.22-12.8,2.91-22.85,10.36-24.86,23.67a22.52,22.52,0,0,0,5.72,19.5l0,0c8.44,7.56,15.41,3.08,17.12-.72s-2.08-4.69-2.84-10.62,7.95-8.6,7.95-8.6h0a13,13,0,0,1,5.69-.6c7.56.87,14.13,6.66,16.23,14.78,3,11.67-1,21.24-9.78,28.81-11.45,9.8-28.6,10.8-42.34,2.52s-20.93-21-21.91-36.86c-1.52-24.44,15.14-47.25,40.22-54.18,23.61-6.52,44.41-.41,61.91,16.36,13.39,12.82,20,28.95,20.84,47.41,1.56,34.94-21.69,66.18-54.35,76.58-31.48,10.05-60.2,3.8-85-17.66-23.34-20.18-33.67-46.52-31.94-77.25,1.5-26.75,12.59-49.25,32-67.6A102.91,102.91,0,0,1,533,313.8c31.51-2.7,59.54,6.45,83.55,27,21.92,18.78,35.16,42.72,39.5,71.21A124,124,0,0,1,654,461.67Z"/><polygon class="cls-3" points="500.86 298.34 489.51 295.34 480.6 302.98 479.95 291.26 469.93 285.15 480.88 280.91 483.59 269.49 491.01 278.59 502.71 277.64 496.34 287.51 500.86 298.34"/></svg>